<svg width="16" height="16" viewBox="0 0 16 16" fill="none" xmlns="http://www.w3.org/2000/svg">
<path d="M2.40019 5.89941H8.7005C9.47373 5.89941 10.1006 6.52625 10.1006 7.29948V13.5998C10.1006 14.373 9.47373 14.9999 8.7005 14.9999H2.40019C1.62695 14.9999 1.00012 14.373 1.00012 13.5998V7.29948C1.00012 6.52625 1.62695 5.89941 2.40019 5.89941Z" stroke="#423EFF" stroke-width="1.5" stroke-linecap="round" stroke-linejoin="round"/>
<path d="M12.9009 10.1004H13.6009C13.9722 10.1004 14.3283 9.95294 14.5909 9.69037C14.8535 9.42781 15.001 9.0717 15.001 8.70038V2.40007C15.001 2.02875 14.8535 1.67263 14.5909 1.41007C14.3283 1.14751 13.9722 1 13.6009 1H7.30058C6.92926 1 6.57315 1.14751 6.31058 1.41007C6.04802 1.67263 5.90051 2.02875 5.90051 2.40007V3.1001" stroke="#423EFF" stroke-width="1.5" stroke-linecap="round" stroke-linejoin="round"/>
</svg>
